<?xml version="1.0" standalone="no"?>
<!DOCTYPE svg PUBLIC "-//W3C//DTD SVG 1.1//EN"
  "http://www.w3.org/Graphics/SVG/1.1/DTD/svg11.dtd">
<svg width="59mm" height="58.999999999999986mm" viewBox="-46 -42.99999999999999 59 58.999999999999986" xmlns="http://www.w3.org/2000/svg" version="1.1">
	<title>svgOutput</title>
	<desc>made with tinkercad</desc>
<path d="M -40.87799835205078 -16.090000152587887 L -39 -17.047187805175778 L -38.09000015258789 -17.510999679565426 L -35 -17.999999999999996 L -32.768001556396484 -17.646780014038082 L -31.90999984741211 -17.510999679565426 L -29.121999740600586 -16.090000152587887 L -29 -15.968000411987301 L -27 -13.968000411987301 L -26.90999984741211 -13.87800025939941 L -26.32398223876953 -12.728235244750973 L -25.48900032043457 -11.090000152587889 L -25 -7.999999999999998 L -25.158252716064453 -6.999999999999998 L -25.316505432128906 -5.999999999999998 L -25.47475814819336 -4.999999999999999 L -25.48900032043457 -4.9099998474121085 L -26.90999984741211 -2.1219999790191646 L -27 -2.032000064849853 L -29 -0.032000001519918324 L -29.031999588012695 1.1102230246251565e-16 L -29.121999740600586 0.09000000357627878 L -31.90999984741211 1.511000037193298 L -35 1.9999999999999996 L -38.09000015258789 1.511000037193298 L -39 1.0471872091293335 L -40.87799835205078 0.09000000357627878 L -40.96799850463867 1.1102230246251565e-16 L -43.09000015258789 -2.1219999790191646 L -44.51100158691406 -4.9099998474121085 L -45 -7.999999999999998 L -44.51100158691406 -11.090000152587889 L -43.09000015258789 -13.87800025939941 L -40.87799835205078 -16.090000152587887 M -32.09000015258789 -41.511001586914055 L -29 -41.99999999999999 L -27 -41.68349456787109 L -25.90999984741211 -41.511001586914055 L -23.121999740600586 -40.09000015258788 L -20.90999984741211 -37.877998352050774 L -19.48900032043457 -35.09000015258788 L -19.121538162231445 -32.76800155639648 L -19 -31.999999999999993 L -19.48900032043457 -28.909999847412102 L -20.46249771118164 -26.999999999999993 L -20.766281127929688 -26.40397644042968 L -20.90999984741211 -26.12199974060058 L -20.969024658203125 -26.062974929809563 L -20.09000015258789 -26.510999679565423 L -19 -26.683494567871087 L -17 -26.999999999999993 L -13.90999984741211 -26.510999679565423 L -11.121999740600586 -25.090000152587884 L -8.90999984741211 -22.87800025939941 L -7.488999843597412 -20.090000152587887 L -7 -16.999999999999996 L -7.0974836349487305 -16.38400077819824 L -7.488999843597412 -13.909999847412106 L -8.90999984741211 -11.121999740600584 L -11.121999740600586 -8.909999847412108 L -13.90999984741211 -7.48899984359741 L -17 -6.999999999999998 L -20.09000015258789 -7.48899984359741 L -22.878000259399414 -8.909999847412108 L -25.09000015258789 -11.121999740600584 L -25.67601776123047 -12.27176475524902 L -26.51099967956543 -13.909999847412106 L -26.902517318725586 -16.38400077819824 L -27 -16.999999999999996 L -26.51099967956543 -20.090000152587887 L -25.09000015258789 -22.87800025939941 L -25.030975341796875 -22.937025070190426 L -25.90999984741211 -22.489000320434567 L -27 -22.316505432128903 L -29 -21.999999999999996 L -32.09000015258789 -22.489000320434567 L -34.87799835205078 -23.909999847412106 L -37.09000015258789 -26.12199974060058 L -38.51100158691406 -28.909999847412102 L -39 -31.999999999999993 L -38.87846374511719 -32.76800155639648 L -38.51100158691406 -35.09000015258788 L -37.09000015258789 -37.877998352050774 L -34.87799835205078 -40.09000015258788 L -32.09000015258789 -41.511001586914055 M -14.51099967956543 8.090000152587889 L -15 4.999999999999999 L -14.525242805480957 1.9999999999999996 L -14.51099967956543 1.9099999666213985 L -13.537503242492676 1.1102230246251565e-16 L -13.09000015258789 -0.8780000209808346 L -12 -1.9680000543594356 L -10.878000259399414 -3.0899999141693106 L -8.09000015258789 -4.511000156402587 L -5 -4.999999999999999 L -1.909999966621399 -4.511000156402587 L 0.878000020980835 -3.0899999141693106 L 3.0899999141693115 -0.8780000209808346 L 3.5375027656555176 1.1102230246251565e-16 L 4.511000156402588 1.9099999666213985 L 4.525242805480957 1.9999999999999996 L 5 4.999999999999999 L 4.511000156402588 8.090000152587889 L 3.0899999141693115 10.878000259399412 L 0.878000020980835 13.090000152587887 L -1.909999966621399 14.510999679565426 L -5 14.999999999999996 L -8.09000015258789 14.510999679565426 L -10.878000259399414 13.090000152587887 L -12 11.968000411987303 L -13.09000015258789 10.878000259399412 L -14.51099967956543 8.090000152587889 M -6.090000152587891 -29.878000259399407 L -6 -29.968000411987298 L -3.878000020980835 -32.09000015258788 L -2.547765016555786 -32.76800155639648 L -1.090000033378601 -33.511001586914055 L 2 -33.99999999999999 L 5.090000152587891 -33.511001586914055 L 6.547764778137207 -32.76800155639648 L 7.877999782562256 -32.09000015258788 L 10.09000015258789 -29.878000259399407 L 11.51099967956543 -27.090000152587884 L 12 -23.999999999999993 L 11.51099967956543 -20.909999847412106 L 10.09000015258789 -18.121999740600582 L 7.877999782562256 -15.909999847412106 L 5.090000152587891 -14.489000320434567 L 2 -13.999999999999996 L 0 -14.316504478454586 L -1.090000033378601 -14.489000320434567 L -3.878000020980835 -15.909999847412106 L -6 -18.03199958801269 L -6.090000152587891 -18.121999740600582 L -7 -19.90741920471191 L -7.511000156402588 -20.909999847412106 L -8 -23.999999999999993 L -7.525242805480957 -26.999999999999993 L -7.511000156402588 -27.090000152587884 L -7 -28.09258079528808 L -6.090000152587891 -29.878000259399407 z" fill="none" stroke="rgb(255,0,0)" stroke-width="0.001mm" />
</svg>